<mxfile host="app.diagrams.net" modified="2023-09-11T17:18:43.443Z" agent="Mozilla/5.0 (X11; Linux x86_64) AppleWebKit/537.36 (KHTML, like Gecko) Chrome/116.0.0.0 Safari/537.36" etag="F-r8QRzlDZO30QuJYPxR" version="21.7.4" type="github">
  <diagram name="Page-1" id="1zZaEs7EWvvRiEeWAvTd">
    <mxGraphModel dx="1195" dy="692" grid="1" gridSize="10" guides="1" tooltips="1" connect="1" arrows="1" fold="1" page="1" pageScale="1" pageWidth="5000" pageHeight="2200" math="0" shadow="0">
      <root>
        <mxCell id="0" />
        <mxCell id="1" parent="0" />
        <mxCell id="h1ksGG6KDdF-CpPXrRE5-38" value="" style="endArrow=none;html=1;rounded=0;exitX=0.5;exitY=0;exitDx=0;exitDy=0;" edge="1" parent="1" source="h1ksGG6KDdF-CpPXrRE5-23">
          <mxGeometry width="50" height="50" relative="1" as="geometry">
            <mxPoint x="970" y="300" as="sourcePoint" />
            <mxPoint x="970" y="260" as="targetPoint" />
          </mxGeometry>
        </mxCell>
        <mxCell id="h1ksGG6KDdF-CpPXrRE5-44" value="Text" style="edgeLabel;html=1;align=center;verticalAlign=middle;resizable=0;points=[];" vertex="1" connectable="0" parent="h1ksGG6KDdF-CpPXrRE5-38">
          <mxGeometry x="0.1476" y="1" relative="1" as="geometry">
            <mxPoint as="offset" />
          </mxGeometry>
        </mxCell>
        <mxCell id="h1ksGG6KDdF-CpPXrRE5-27" value="" style="endArrow=none;html=1;rounded=0;exitX=1;exitY=0.5;exitDx=0;exitDy=0;" edge="1" parent="1">
          <mxGeometry width="50" height="50" relative="1" as="geometry">
            <mxPoint x="650" y="469.57" as="sourcePoint" />
            <mxPoint x="900" y="469.57" as="targetPoint" />
          </mxGeometry>
        </mxCell>
        <mxCell id="h1ksGG6KDdF-CpPXrRE5-28" value="eth0&lt;br&gt;172.16.20.1" style="edgeLabel;html=1;align=center;verticalAlign=middle;resizable=0;points=[];" vertex="1" connectable="0" parent="h1ksGG6KDdF-CpPXrRE5-27">
          <mxGeometry x="0.3736" y="-1" relative="1" as="geometry">
            <mxPoint x="28" y="-1" as="offset" />
          </mxGeometry>
        </mxCell>
        <mxCell id="h1ksGG6KDdF-CpPXrRE5-40" value="172.16.20.1/30" style="edgeLabel;html=1;align=center;verticalAlign=middle;resizable=0;points=[];" vertex="1" connectable="0" parent="h1ksGG6KDdF-CpPXrRE5-27">
          <mxGeometry x="-0.16" y="-3" relative="1" as="geometry">
            <mxPoint x="5" y="-13" as="offset" />
          </mxGeometry>
        </mxCell>
        <mxCell id="h1ksGG6KDdF-CpPXrRE5-1" value="internet-host-student-11&lt;br&gt;float: 10.50.44.215&lt;br&gt;80, 22, 23" style="ellipse;whiteSpace=wrap;html=1;aspect=fixed;" vertex="1" parent="1">
          <mxGeometry x="350" y="1580" width="200" height="200" as="geometry" />
        </mxCell>
        <mxCell id="h1ksGG6KDdF-CpPXrRE5-3" value="&lt;br&gt;BLUE-SCR&lt;br&gt;172.16.20.1&lt;br&gt;22" style="whiteSpace=wrap;html=1;aspect=fixed;" vertex="1" parent="1">
          <mxGeometry x="1370" y="1340" width="200" height="200" as="geometry" />
        </mxCell>
        <mxCell id="h1ksGG6KDdF-CpPXrRE5-4" value="&lt;br&gt;172.16.20.2&lt;br&gt;22" style="ellipse;whiteSpace=wrap;html=1;aspect=fixed;" vertex="1" parent="1">
          <mxGeometry x="1820" y="1550" width="200" height="200" as="geometry" />
        </mxCell>
        <mxCell id="h1ksGG6KDdF-CpPXrRE5-7" value="" style="endArrow=none;html=1;rounded=0;strokeWidth=5;" edge="1" parent="1">
          <mxGeometry width="50" height="50" relative="1" as="geometry">
            <mxPoint x="305" y="1540" as="sourcePoint" />
            <mxPoint x="595" y="1540" as="targetPoint" />
          </mxGeometry>
        </mxCell>
        <mxCell id="h1ksGG6KDdF-CpPXrRE5-8" value="" style="endArrow=none;html=1;rounded=0;strokeWidth=5;" edge="1" parent="1">
          <mxGeometry width="50" height="50" relative="1" as="geometry">
            <mxPoint x="1710" y="1520" as="sourcePoint" />
            <mxPoint x="2120" y="1520" as="targetPoint" />
          </mxGeometry>
        </mxCell>
        <mxCell id="h1ksGG6KDdF-CpPXrRE5-9" value="" style="endArrow=none;html=1;rounded=0;exitX=0.5;exitY=0;exitDx=0;exitDy=0;" edge="1" parent="1" source="h1ksGG6KDdF-CpPXrRE5-1">
          <mxGeometry width="50" height="50" relative="1" as="geometry">
            <mxPoint x="1070" y="1610" as="sourcePoint" />
            <mxPoint x="450" y="1540" as="targetPoint" />
          </mxGeometry>
        </mxCell>
        <mxCell id="h1ksGG6KDdF-CpPXrRE5-10" value="" style="endArrow=none;html=1;rounded=0;entryX=0;entryY=0.5;entryDx=0;entryDy=0;" edge="1" parent="1" target="h1ksGG6KDdF-CpPXrRE5-16">
          <mxGeometry width="50" height="50" relative="1" as="geometry">
            <mxPoint x="450" y="1540" as="sourcePoint" />
            <mxPoint x="1000" y="1440" as="targetPoint" />
            <Array as="points">
              <mxPoint x="450" y="1440" />
            </Array>
          </mxGeometry>
        </mxCell>
        <mxCell id="h1ksGG6KDdF-CpPXrRE5-18" value="10.10.205.253" style="edgeLabel;html=1;align=center;verticalAlign=middle;resizable=0;points=[];" vertex="1" connectable="0" parent="h1ksGG6KDdF-CpPXrRE5-10">
          <mxGeometry x="0.9255" y="1" relative="1" as="geometry">
            <mxPoint as="offset" />
          </mxGeometry>
        </mxCell>
        <mxCell id="h1ksGG6KDdF-CpPXrRE5-11" value="" style="shape=image;verticalLabelPosition=bottom;labelBackgroundColor=default;verticalAlign=top;aspect=fixed;imageAspect=0;image=data:image/png,iVBORw0KGgoAAAANSUhEUgAAAnQAAACeCAYAAAC7KZcCAAAABHNCSVQICAgIfAhkiAAAIABJREFUeF7snQdYFMffgN+7oyhYEOy9GzvGmHya2Lv+TTSxxBgLJhKx9941sUWNSYw11sRE0WiMFTRiLKABFBQEKyogJaAoWCh33x69HNwengg6+zz3KLuzv/JO2d/OzM4obC1qahCHIPCmE1BVo/20/lR0W8v2Ew/QWSnkpHnTOQr/BQFBQBAQBF4JAaXRtVpWoGGXNtQtqTC66KwCVZRsO4Klp/7m79AruAadZq/zCnrXV2VNKs4IAjkRMKlD5wmf0+otC7ItuXLS5KRDXBMEBIE3joCy9lf8EunGgq4Wb5zvL+KwZaup7Ap0Y8vE+pi8kCD9MYnRdL2InUa4VwrolFQcs5sLMde5mP730JFBNQwPjFR1B7Bw5ww6VTV+rJjZX4V1V6buGEPj//aytN8ghn86nTWb/+ZaqDpzUvH3KyUgo4wpitN+zTGOh1zBI/oaHpGeHLuwhZkOTbHOTVFSlOLDPe64RXjz86hKUikXhyAgCAgCL0jAvBJt567hVz93zj/04czt42zfNYW2lbJrYVRU69mV2g9P4vTPk2TlSsp8tYMLEd/TwfwF7dFzu8KqPVNPO3E00JsLkRdxvvgbS+Z/SK2i2b626pGYV5cVFKpcgwpWJahSpzSmL6BWf0xiPF0vYKZRbpUCXzUhv0yg/3ELinSfy8YZCjZ0m4fLw6eE30swipKXJURZtQ41LIJxWr6eY27xL0uNkPvCBOSUMVOsKlWk2MUf+WKqC8/MrKjc9nNGL9pMHYu+2K3wx5DSqKzSjY/ecWft16YM7d+Damt/4qYhAl7YZyFAEBAEXi8CKupOWcuSERqcFs5g5fkQNNY1aNSyKFEPsulEUNWkfa/aRB1ZiXvMK6BhakPl+hUJWm7HpJMqyjRuQ5/xi9naoTaju67A85HOySWvwNDMKjVE/DqBT30qEe9/laeZLxv177zUZVTDswhLfK2Ijwzkpu91bgfHoNHEEOZ3nRtX7xEVm5xeYUWLORvY5nGKv6UelH8fXOKY61pGdquQ1hVq+i5T/fxwPzWMKubVGHLKL7nHz5+/17RMi7CVJWg8fCFr3U7xz3+XcbnyOwtHNcUq3QuDwsqW3ktWsu6sM0fvXuJ81FXc7p9mzYhqST0tKbpOD6ea9MY08MTVZF2+bBtTObU3RlGqC7Pd/sEl/CoeD705fnEbMwa+hUWGlxNTyrSxY/aff3EkWOubN6euHeK7UXVJ7Z+UYXMWsuJEBgJ6y1hyak1UINe8r+Ln7ioF6lP54XACdft0pLpBncUqqvfrRfWzB9m/4yAXq31Id9tMAixq0HXpFvbducyF/y6w/69h1M/cry8jjd6yqvVLRvlRFKlLz++2sffWJS5E+XIu6BwHTk6jRdE0jHLSiGInCAgCL4mAshSNWlRHc3wd3/zohMe/3nge28fWWdvxjNatU1W/Cx3eesCpPy7wTHeSPDir5tGtK1xxO8eJ9d8wsvsSLleXAjyH2mkjF0Zqo5Ce9Pqep/raTEWpvqyJlEYMoy/y15kD/LmhG1k6MrUxybyf2entyplIP/6V2vA/jy1lYMtSaT7JiElk6dLmkElZmk9exY6rnpyP8ODQyZV80a5sWowgJ0bKg5zO/AjTrVJhQZX3P6Be9K/MGnSSB9JwVhP7iQzbupwHzQeyU9v1EefNxm5d2dvkS1Zvep/zX9qz/bK210xDQlQISf1nhWk4cws/DYvlwPy5rLsUjXXLwYyfv56Fjz9k7LZgqb8QFKXfo+dXHdBs+4YVC+4Q8Tgek2IlUdwMSryek65nYUkytMk0D69ybNkcDgf+xxNFCd76bAITf/ieJ9e68935OCmFklIfL2HL5k4k/P0L28Z9R0DoU8zKVMHydrIu5NmsG5w4+2IE4nn+XMpxpQqFISMEJrXo0KsiHitP8+g/E066zmFIz/r85OGdVA6lstBm1WYW9IjgwIKJLLttSpU2Ui/g/6WzVk4aKbnesiqr/JjQaOaPzPzwLpunDOf0zRiUxUpTuVocd1NGaaRXJ/1pXoy2uFsQEARyIKB+yO2rYag+7E63On+z119fv5GK2r26UDX8BCvOvrpwLrNHCTf/kOaaj+frD9tT9Vt/biXIecbJaX/kPE9ltJmRR1jwnjuFlTZ0XbeNIZkd0P6tjUmaN6dmxDamjTnJI7PyNP1iNKP2bcHmo758d1ZqOGXEJBo5uijCO4u28J1dPMcWTGPNVSW1BozGYc9WSnzUm29PS9G8nBhJlx9GPicvoEtWqr53ERenczyX/na/UoSml2fwQesS/HbzPylse0bkrdtEWUcRp4kl6s5NAq5lHONSlO7GsFEVcR3TiWW7IpO+JPTwx7TpKRZ+2p7SO3YQktpz/Ywbh/bi7KwNvDIf+nUl3hF3hwt/3Em9+erlQrzTZzW275VDef4uarO3GbygO0VOzePTPr8TnGruudR7DLM5s53i79wSUBayplrHYQztbkHgz6cIMGBEXVW/K+0re7DtxCOpx1mB27ErTHXoRJ0F3vhIxUlZ8X981tsG77mf8/W6e4kvCa4uCbxt3wybZIPlpEnzLfuyKq/8mFCijBU8cMHT5V+u/JdUEL1PpacnJ01uaYv7BAFBQD+BZ/w7dxTflljK2DMn6HV4L3t//p0j/wTp7n0zrU/HnlWIOLiAi/knnpPcfMa9G/dRtK5IWWng4raNnOeyjPZHxvNUTptJwmNCrz+WGuoYIvTEzJqgy5x1uZAUk7j4gcsfDJrYjR3n9hChkREnyNClKNcdu6FVuLa0B/PX3Eyc+uP2zw1Max3gS0nX1jO7+S/ZsZxjJP0l7EVTGBTQpVemDr9HULSC2tbFpa8CtQGd/sOkgS31LIpite400uoQqYfCxBTl7fKUkgaA0wI6/fL0pVCWeodPpQr4Uds6lC2h5EnYEwoVVnC/kFnircqKjWlYIQHvZce4n838qry2WZ9Pr/t10/8t5/Sj5SiUSjRPQ/H6dQYTv75Eyui/fv9V1JTePMtd2I5rpLZUagg/cYob33xCm/qr8LmUgKrOW9RU3efA+bTe3Mxy5aTJfI+uv+WVn2ecW/w1x3bN5Seftlw8eIijv//BkRO3iUn3gqM/jS4LxDlBQBAwFgHN4yvssuvBwRr/R6eB/ej7yxG+8lrHjEFr8XyQ8Slo0qQr7aqG4bLPw4D2y1iW6pOTNuRhrDZKzvNUn1UvdD32BudcgvmyXyNqmEoBnfyHRo5qTeo1pI5ZMIdO30mbxx0fwL+ng3D4tKGkSwrodHQ45CZGytEQGRdzHdBpP6ZQS0GQQpl5LEyTfXCnHTdLCGT/0OH84pMpgoqL4r4OKDJ80J1EWZHeWzcyrqor62eP5Zz/IxQ2H+Cwc0JqLwwayQfpbrU6mwmtWsl5abNuT96os3GnVvDF5JNEP3vMf4GhRBtaKaW14lp2qYFFw3kcjpibzE6JiRTDm3SqztpL16UYTyPluwJllrKbDrWcNHJyRmb5ib3+B7Pec2F7p2506f0/vtj5JcM91jL1sx+kL36THhRy0sgxSaQRBASBFyGgJubmOfbNO8dfm3uxxOUb5k46xyczLyVPLdLKNqVBr06UD3bG+byhjdiL2Cbn3kJUqlkWAgMJ1T6GjdVGyXmeyjEvJY3UBsvpKEoTKaXWPsslfzJ+cyxDjh5dmaOcDDqz9Sm7GCnbG174QnbfWude8LNnxCqKUKRYVtHxPt74x5ajUaNC3L92SxqSTfe7HZHYbWq0w7QOjd4uxI3tq9giTUi96uOHr5sP95+lFRF10BWu3lfRqGdHymQz6T5PbTaa8wVY0OMQbvneIOBWLoI5yW1l1Ta0qnOTX/p8SL//65H8+4gZO0Kp0bkV5aVimZSn5WnWvma2n8PLSSOHskHlJy6Sa4d+4Xu7T/moxTJuNhnOmIFpH/kk6pOTRo5hIo0gIAi8MIH4e2c5f1VN2ZqVM07cN2tMxw/LEXrgKJfzWTynrPohvTqac/Pg3wRIAZ2x2ig5z1PDgD/n2VPpeW1VDFmrrEidOLbNK5Bw9Sq303cO5RCTpNmTva5438v4xZbn7ZZV0j6CMKlKs5YViLt8hZu6ZoUZ5qjRUif20JlYV6RKWWnZkvKWUnCroPRbtaipXbbkZrovXWWqTAjw48Zja9pPGo2nypVIk9JUK+SH4z5p2YmQg2xcN5C149fzU/GNODr5ExlXmJK1yhF1eCdn7+bQUyZTf2qy+Jv4XYmjY7+v6Hf5dy4FPZEmmtejjHm6WDvWgx2LTtBxnbRcy56a/LrTjdthsaikCekVuMIff93IW5sN9bEApTdmGcvebSUl27Wi9qNLrHWRgsJ0bwjhx72J69OK5mW34Bh8iM0/2/HTxJ9YrvyRP84E87xYY8pKwV5K3dSE6E+TvR1pVzSyynwhmo6dSfOnZ/nXO4hHseaUfq8hpc2eczdC+vI8UZycNHIsEmkEAUEgVwSkr1zbzxlNjTunueQbwuOEIlRqPYCBzRPwnXc5w9IaZu91o235IJz3e6W2KVl0Sh0f5erWpma6gE+TEEXItVBiDOuayiI64wklxao3oF7TBKzrtaT35KHYBmxn9E/JS0EZq42S8zzVY2mGy5pobnjfQTmqP18Nloau/ytGRZUve/68ljr0afJ/nzJyuIJ/paiqQs8R2L8TwbHPDhOWLpTIMSZJUZiTrvsHpQ8n7VgzZTXzYn/kiJ+Smv1H8WWDu/zx0WH+0+ZV9l14hnj8wmmlgE5J2c9X8tviJqm9FSOPH2Jk3CVWNf2U7YYu3hX9N2tGbcN6QT/mONqjjA7iyua5HNrvz2PNEy7NG4T9vbEM//ILZg4pSWF1NGHXzrP97G8v7EwGAQkB7PpyHMW+HslnP21inJUZCU8eEXVfmkR5O2VBIDX3d45ncPhgho3rxdAfBmIjrWnyNPwuvju/wengDaLy0mbjEshH0oxcxrLzTFGMZh0bg9cB6Y0qY6Knnhe5rhrH+22Ks2fnAzxmD2Z02GSG201n2eSiqJ4/Itz/X45eTwmgYmSkyc6Q9OdllHlFYVTmxWn2xXw+q1xcetN/TtRdf/5dPp5Vu5Lnp8pJI8cckUYQEARyR0BhTnyCJU0dZvNZtVIUMYnlYcAVzi0czg9rbietwJAo2RzbTzpQ8s5BnD1zmEdk3pIJZ1tmsEXzaD/jq07mlLGGq+IiuOsbRLtRm9g2OUFqV/zw2D9bWtfzT/yjUqJGI7VREgH9z1ND0Cfg98M8NjRcwGffruHD5yFc3SqtWnHgGtInE4mHJrYIDRzm0a9KIZ4EeHDwq8msPvQw41BtjjFJij056JKWcnOfNYTxD2cwavQSvisprVvn8w9b+i5hs/YL13x0KMRervkoN4QpgoAgIAgIAgWbQOEPmOW9gbd39qPP3MsGLYhesB3PQ+uV5el/5DjjwifR6vPDxp2ulYduGFtV1oluxtYg5AkCgoAgIAgIAm8IgUIfdKN1yTuc2Ocrgrk3JM/zi5sioMsvOSHsEAQEAUFAECjgBArT7JO2FL8u7Ut9JZu1sAq4h8L8/EtADLnm37wRlgkCgoAgIAgIAoKAICCLgOihk4VJJBIEBAFBQBAQBAQBQSD/EhABXf7NG2GZICAICAKCgCAgCAgCsgiIgE4WJpFIEBAEBAFBQBAQBASB/EtABHT5N2+EZYKAICAICAKCgCAgCMgiIAI6WZhEIkFAEBAEBAFBQBAQBPIvARHQ5d+8EZYJAoKAICAICAKCgCAgi4AI6GRhEokEAUFAEBAEBAFBQBDIvwREQJd/80ZYJggIAoKAICAICAKCgCwCJimplIUtsTBTodCe0CQQGxPD80wLXYs0OfORRfwNTiTKT87lx1h83uAiJlwXBF46AWPVUzlyjOWMHF0iTcFvn5N76Ex4e9ERTgV78I/2F3iIsc1TY73kMiXS5MzHWFXvdZUjyk/O5cdYfF7X8iP8EgTyAwFj1VM5cozlrxxdIs3r0D4nb/2loGjNxtQuZ57UQ8dzQr28uPdIk65EiTQ58zFW5Xtd5Yjyk3P5MRaf17X8CL8EgfxAwFj1VI4cY/krR5dI8zq0z2IvV2PVGSFHEBAEBAFBQBAQBASBV0RAfBTxisALtYKAICAICAKCgCAgCBiLgAjojEVSyBEEBAFBQBAQBAQBQeAVERAB3SsCL9QKAoKAICAICAKCgCBgLAIioDMWSSFHEBAEBAFBQBAQBASBV0RABHSvCLxQKwgIAoKAICAICAKCgLEIiIDOWCSFHEFAEBAEBAFBQBAQBF4RARHQvSLwQq0gIAgIAoKAICAICALGIiACOmORFHIEAUFAEBAEBAFBQBB4RQSMF9ApitBgyBSmfWVL5k3DXpFvQq0gIAgIAoKAICAICAJvBAHDAjrLCjTs0oa6JRVZ4SiK0bD/EHq1LI8q61VxRhAQBPIpAWXtr/gl0o0FXS3yqYXCLEGg4BIQ9avg5l1Bs9yggE5VdwALd86gU1WDbsvIRFGchg5L2ebrwfkITw6dXEr/ZsWT95AtaPiEvYYSMK/Zg3kXvTm49J2MPbmm7zLVz4+LMdez/Dx8ZmBrqtWkoFiT3kx03M/hoMtcCP+Xv06uwq51KXJbIrO1J9UxBRY12zBg+Y9s9jzDqaDN9C6n44UmWxAybTZyvdDvV4rBKqr17Erthydx+udJ8kkTyncZxaKjTpwI85U4n+dPp2UMfL9ExnpqZJuzRSguCAIFloCu+pWXziipOGY3FzK3qw8dGVQjqetFUeJjfoj05+SuXpRObUhNeW/1Odz29cZKau7Meq7GLTpr26xtrz1DV9HOXOuTkjJf7ciqK8Yf59UtSGzCi7Zn5qXznH3gh+fjq7jec2Hnnln0bFIstW2RY48cXfJszsu8ePm68nh0VEnZz5fx/eIG+K6Yz/jzYDtyKhP2LiOmhQMHAtUv32Oh4ZUQUNnUo4ODA8NGdqCqhYLQzFbE+7CjXz8Om6cFSwrrDxi5aQTl/j5HQLx0g6oK3RaNomnIbtbbexOmqkq7yRMYtdOMsCajOBSmySw127/12pN4pznVBi5m5aIGBO1xZN+cX7kTGEJgpHw98mw2Xr2Q51c6LKqatO9Vm6gjK3GPSTmvJr6wGdEnN7JoWSDPitei3dgxjPtVSWCjSZx8pE1nPJuzzSRxQRAo6AR01q+8dEpNyC8T6H/cgiLd57JxhoIN3ebh8vAp4fcS0hmixKrrOBw6/s2CY1FkbuHiTizhs2ZrUErNs2V6OVGgSXhESGw6Uc9Ps7LdElxTz2mIfxCItglXmBSnbOWi3Fhhx+K/YrAoW5tW4yYy668q0Pwr9t9LiQFytidVWw66MMTmvMySl6grKaBTlqCx/QSGD2lF/ZrWqEN8OL1uOSvWePBQm7Pa3pPL2/m0UlJEP+SUH0MSjVLzYOuXdB55mrhkI01aTWb37cWULa4h6ror++cuYP3R+yQWHZM6fDymJfw5kRmLjhAlyXZ1T6CK13I+H1ybQ1/7JaVLliX+eV0IqKhhP5/RbW7hOHQCJb9ZQbvMrmliCPbyIjjlvMKathv7YRu2A4fpLknlMCGAXT074BgXn1xOzuAeUZUWh7rSuK6JFNCllMLMwjP/LcMe6Rbzd0ezdF4JHLt+xE7fp5mFyPtbjs1Gqxfy/EpvuKp+Fzq89YBTsy7wLPWCmrB9K1mS+rcrHs8b0nlnHWpJbcBJH6k2G81meRhFKkHglRNQ1cH+zD76XPiSbmPPJT3zzLuwLHglNnM6MmxNkPREzHjorF+5kPMivsdHBnIzUjtSEINGoyDM7zo3HmQK2dQReJ5+RMcFQ3F0WYXv84waNY/vc+vqfemkHjna2zTR3L96jRuZZGgvJb2ua4i+54+/VyQaL28u+RSm/uVpdOpgzZ9b/ktSrMeeVOty0IUhNmd0t8D+JXWwFqbhzC38NKMOARvnMrqzHfM3hdN4/noWDiqfNJQV583Gbl3pM2g3wbFB7BvUnV5NOku/Lgxe4J4Yeacc6uAzbBk9ktF9Z+F4tx5225bwSZWkflxFqSY0rqHG65gbxew2cOzWdvqXOc85dzVV/s82sWtXHK8jgQSuLelLjw5T2eYcSGzm1z8dLhd+34Fxn6g4Pn8tF6PTEmhSgzntOWk4tHwZLOPvcudu+rdNHQIznJJhjzSc2Gb0p1SJtaLTDmdc7rvj5L6V6YPrYWlgOdVns/HqhQy/MnBQUbtXF6qGn8D5bFo4l5GeCovK79LPrjkqv5O43kzibDyb9eWVuC4IFFQCcupXfvEtnptrv+WQxQBGD6yQ6yksufFGEx3DE7UCU3PTdFM6Xp09ufEhv9yjVJTuxrBRFXGdPJxlP7vg5eHOye9m8ONhJe9+2j55TP0Zkbduc/tOFHGaWKLu3CTg2i3pd5t7oU8zdM+qb7hy5OAZLhw/yM/jN3HJrCmtWlslZpSydGmsFY/5L+QZRSpVxNqmIuWsnhB+/wmKUqWwFl9T5JdyYXw7NJos3fjZKlGWo9uUPpRy38SGgw+zvc+0Ri9mL2pN2LoV7L+d+d04W+lJF/TZY9qAZh9YEu7txG8TR2DfaRhL90H77zcxvUdSedajQedlXTYbtV7o8yu9Vab16dizChEHj3BRRzynsOrJqlAfzvj+wrh3b7FxxHouJ6czqs06SYmTgkABJ6CnfuU37zSP3Nj87UXqjh/GO0VewLpCXVkemW6+XcQaOlvqkqfAzKY2HeYMoVmsOyecwzL0cMqyR7YuXfpfv3MmJg1sqWdRFKt1p3Fbm+agwsQU5e3ylJI610IMfFamSFGH3SMoWkmt0toHYGQ6evFcXdSP//2sJCIwjncHvn5ghUe5J6Cs15u+LWM5ZbeX7DreCjcYwDd7plD9zAxGzHcndfpX7tVmuFNhWYbSxdXcPbobJ5eIxKDymu8CKnc+yBd938fiwCGDdeq3OW/rhUmTrrSrGobLPg/ST4FJAaF5dIKlbXuzo/JbtBg2kuEHfobug9nqlT513tpspOwVYgSBl05AX/166QYYrEBN6O8/8MeYLXzx2Ta2Gnx/8g3Pz7Kq01LOpzQT6kcEZ5ixYsr/rZbije9UmJgqSQg8zcZ+U9md3PufplaGPXp15daJgnmfCQqp7ywhkP1Dh/OLdm5M+iMuivvpx1Olx5qM0bJ0EqS5TtL9CmXSkKs6LIxITVFKlrVAkRBFaKCUVGFFqXIWaMLDiTRk1Kxg8hZW6yWgom7fHlSPdGa1U9bJudphVst37Fm11wGrfROxn3Sc0AxlVK8CWQk0cXHEa5RYW2u/vkoK6EgIISRYjVlJG4pKRTpG9otOzja/mnphSoNenSgf7IxzasubCY36MSG+VxJ/ni53sfTcRn+7pvw6zpV4UZdllSOR6HUioEYt1XmVqZxvCXOqX4bIyWN+z6/w23ceOE74nAYXcqlbIwVwl6/ir2MOXZLEeC598zmL9j+luv0KFvWI5ObViCzzDxPT6rNHr65c+lBAb1PG+3jjH1uORo0KcT9xGDXd73YEGfLk2TNipQWEixRL/bbZILc14ZfwuqmkUcfmFEueh6Swak7zpkruuF1KmvhukESR+LUjYFKb1l0q8vj4cTxTVtFI56SybFdm7xyJzf5xjJiQUzCnxOb9/jjMHsDbad/iy8f17BY3bkO195tSImXOnGl1atRSER1wlwcZgrmcdemz2bB6kbMu2Q6aNabjh+UIPXCUy7q65zIL0iQ/hFRJdd8wmzMLE38LAgWQgDqSiP/UFKleFRt9j8Cc6pchcvIck5rwPRv4S/ERfTpYppvTZkxDNDwLvSPFGn6cmD2dHZGdmbSgNcV1zk3OC3uM6durlWWiCTnIxnUDWTt+PT8V34ijkz+RcYUpWascUYd3cvZu2pMrIcCPG4+taT9pNJ4qVyJNSlOtkB+O+/zlfZ0a78cfP5yhz/cz+fq6CTulN4CG0rIl7TnNou3X5Ml4tbyE9twSKGRDpWo2mJtUpoSZAhObStSoF8Vz6XP2O/fT5mEqyzTFtqYa3x+9Mr5MJOo1peHYCbRTHOfrbcFYvVUbq2R71NEhBNx9lPaWZ2rL4HVzGVgduln60WuaR4aPd9Bnj1RWD2724LPF45gzIYINzlFU7D+dvlVvscfBLaNtOeqSYbMh9SJHXRIMfX4l8zJ7rxttywfhvN8r9Qv11KxVlqLFyD5UCPblTpgUVRetSOPPhvNxhSD277mUlN4Qm3NbZsR9gkB+IqB5wPlD0vSE5cOYOe0Bv50OJaFEY8pIwV3mQYIc65cBcozhvol1RapIo2JFyksBmjQiV/qtWtTULlty8x5Rul7mnnqya+M1ei9tljv1UqdPubq1qZlOtkYakQu5FkqWd/Sn3mybsY9ue6dht9WN787rmMybkz056IoxbDgxd77ms7ukvuMnXJo3CPt7Yxn+5RfMHFKSwupowq6dZ/vZ3zKaG/03a0Ztw3pBP+Y42qOMDuLK5rkc2u/PY1mOSWvi7JjMGMsZTB67kFWTINLLmVW9v+ZA6vozsgSJRAWMgKruYL5zcaB6ymhFtWX83l/Nf5vs0pYAkHxS1ahJFWU4TtcfZR3eV5amQdPymJavwrzTPTIQiHWaTueP96T18sYH4H78Jh/1VeB2OiDLy4J+exK4u24c48xnMMb+WzbPMiX65nn2DB7HTxcyNTo56ZJlswH1IiddWn6yOJtj+0kHSt45iLNn5keRJERhQdHKtnxkP5jqlYqjehZJ0KVz/Nx/FdtPpcxWNMDmAlZWhbmCgG4CaoI3T2VK6TmMGbqI1dPMUT+NItz/X5xvPEnXXumpX9Jrpzw5uq0w7Kx2vciV/La4SdLCvtLNI48fYmTcJVY1/ZTtWeataaWrCfp1KycmNaWjYcqSUpu3ZMLZlhnu1Dzaz/iqk/lHh7yYUxvYdu4jxs7tjeP/fklbuio1bQ725KDrVLZDvjqMeE1OKWwtar6BceyELE/NAAAgAElEQVRrknvCDUEgNwQKf8As7w28vbMffeZezhLs5kakuEcQEASSCYj6JYrCKyKgbybAKzJLqBUEBIGXRaDQB91oXfIOJ/b5imDuZUEWct9YAqJ+vbFZ/8odFwHdK88CYYAgkJcECtPsk7YUv36M41fEZ+V5SV7oehMIiPr1JuRyfvVRDLnm15wRdgkCgoAgIAgIAoKAICCTgOihkwlKJBMEBAFBQBAQBAQBQSC/EhABXX7NGWGXICAICAKCgCAgCAgCMgkYL6CT1oNpMGQK076yRc462jLtE8kEAUFAEBAEBAFBQBAQBPQQMCygs6xAwy5tqFtSx5LOimI07D+EXi3Lo9KjVFwWBASB/ENAWfsrfol0Y0FXi/xjlLBEEHhNCIj69ZpkZAFww6CATlV3AAt3zqBTVYNu04nBvGYP5l305uDSd0SPnk5Cr+fJbPPd9F2m+vlxMeZ6lp+HzwxsTbU8FBRr0puJjvs5HHSZC+H/8tfJVdi1LkVuS2S29qTiV2BRsw0Dlv/IZs8znAraTO9yOl5oss0umTYritPQYSnbfD04H+HJoZNL6d+seC633jHEZhXVenal9sOTOP2Tso67CeW7jGLRUSdOhPlKnM/zp9MyBr5fIqM9RrU5W4DigiBQgAnoql95547CqhNzL53n7AN/PB/74RZ0GsfDSxncpnS6NlNJma92cCHiezqY67ZN1XAsux+cYXqrxIY4+TDlvdXnuOA6CmlHROlIlpOlDffHeXWLxIWNFSU+5odIf07u6kXajoxJctz29cYqsWnVL8es52rcorM+K7TPD8/QVbTLxo9U01/T/+T56KjKph4dHBwYNrIDVS0UhL6mYIVbGQnozfd4H3b068dh87RgSWH9ASM3jaDc3+cI0G5ooKpCt0WjaBqym/X23oSpqtJu8gRG7TQjrMkoDoXJXyNbrz2J5ptTbeBiVi5qQNAeR/bN+ZU7gSEERsrXI89m7Wruy/h+cQN8V8xn/HmwlbbEm7B3GTEtHDgQmGHjWD1Fy0CbVTVp36s2UUdW4p6yCYS0Unx8YTOiT25k0bJAnhWvRbuxYxj3q5LARpM4+UhrgjFt1uOSuCwIFFQCOutXHjpjakXpykXxWdSPZUfjsCgr7ZU9fhKjd5Xl6Xt27A4wpG2Raffz06xstwTX1K2/NMRLWzym7UmjxKrrOBw6/s2CY1FZdwRKUZOTnBNL+KzZGpTS48Ky+1w2zlCwods8XKJAk/CIEF1bmsk0vyAnSwrolCVobD+B4UNaUb+mNeoQH06vW86KNR5JWylpe08ub+fTSkmDqUNO+TEk0Ws1D7Z+SeeRp1P3gzRpNZndtxdTtriGqOuu7J+7gPVH7ycvYKqihv18Rre5hePQCZT8ZgXtCjI9YbtMAjLyXRNDsJdX2rYvCmvabuyHbdgOHKa7JJXDhAB29eyAY1x8cnk6g3tEVVoc6krjuiZSQBdnPHskSebvjmbpvBI4dv2Inb5PZcrOlEyOzSZ1+HiMtFXOnxOZsegIUVK86OqeQBWv5Xw+uDaHvvaTvQCwoTar6nehw1sPODXrAmkbmqkJ27eSJamuuOLxvCGdd9ahltQGnPSR1q8zos25AyvuEgTymICqDvZn9tHnwpdp2xWad2FZ8Eps5nRk2JqgtL2kk03TWb9yIefFPFUTE3idGz7SG5uPD1eCy9Hi3BDqarvVXkZAp4nm/tVr3NCx9Vbi67o6As/Tj+i4YCiOLqvw1ZEu0d8c5PD4Preu3pcSaUdAYtBoFIT5ST4+MOBl+8Wg5su7pZGqwjScuYWfZtQhYONcRne2Y/6mcBrPX8/CQeWTumXjvNnYrSt9Bu0mODaIfYO606tJZ+nXhcEL3DNsTKwOPsOW0SMZ3XcWjnfrYbdtCZ9USRkQS+Dakr706DCVbc6BxL7Z7PNlgXg5Rhme74Xfd2DcJyqOz1/Lxeg0qzSpwZz2nDS0WL4MlvF3uXPXkEVyZdgjDSe2Gf0pVWKt6LTDGZf77ji5b2X64HpYGjLiKlmpz2ZFqSY0rqHG65gbxew2cOzWdvqXOc85dzVV/s82eRhCRs4YbLOK2r26UDX8BM5ndWyKnahShUXld+ln1xyV30lck/d+NJrNMtwSSQSBgklATv3KS89UFCpbj472XagYJE2ncNexj3OemBPPzbXfcshiAKMHVsj1dJk8MbWAKTFRlO7GsFEVcR3TiWW7IpO6Pz38MW16ioWftqf0jh2EqJ8Rees2UdZRxGliibpzk4Bruh+g6huuHDl4Bm3Q7e5XgncvT6VVaysctyfL1miy72ItYPCEuQYQMCTfleXoNqUPpdy/Z8PBh9mWF9MavZi9qDVh64ay/7aBQwf67DFtQLMPLAm/4MRva89yO0JFpQ/HMv37TVg+6MbsA9nblRMVXTYrS5fGWvEYr5BnFGlZEWubQpSzeoLr/Sco3i6FtfQiHSGn7TXUZtP6dOxZhYiDC7ioI55TWPVkpf8SWlsq0US48UOv9VxOTmc0m3OCJa4JAgWZgJ76lXeumdF6owceG5UoVNLbaMw1HId8z7mX1ZtVqCvLI6+nuffMiWmVR3IsdUqH9JL7yI3N315k15RhvPP717pRyJCj+8Y396yJSQNb6lkUxWrdadzWpoFQmJiivF2eUlLnWoiBz8oUKeqwewRFK6lV2krqS0kO6N5c1sJzmQSU9XrTt2Usp+z2kl3HW+EGA/hmzxSqn5nBiPnupGsrZGrJOZnCsgyli6u5e3Q3Ti4RiUHlNd8FVO58kC/6vo/FgUMG69RvczxXpbku//tZSURgHO8OzNnGzFcNtdmkSVfaVQ3DZZ8HuqacaB6dYGnb3uyo/BYtho1k+IGfoftgtnqlT/1iNmf2QfwtCLwuBPTVr7zzM45/533G8qPPMbcuR60uQxixbRcW9v2Yuy8syzDxC9v1/CyrOi3lfEozoX5EcJYZK2pCf/+BP8Zs4YvPtrFVl1JZcnTd+OaeM0EhRewJgewfOpxftHNj0h9xUdzP0DNgaO+aNNdJul+hzO03iG9uxry5nquo27cH1SOdWe2ka8KsAst37Fm11wGrfROxn3ScUDm9VwYC1cTFEa9RYm1dTHoZSQroSAghJFiNWUkbikpFOkb2i07ONqvDwojUFKVkWQsUCVGEBkrGKqwoVc4CTXg4kbo7w7N4ZJjNpjTo1Ynywc44p7a8mUSqHxPieyXx5+lyF0vPbfS3a8qv41yJN5LNWZwQJwSBfEtAjVqq8ypTOd8S5lS/DJFjDBgangTd4Iav9rXXD5+zF4mv8w+z7Tuz5k/tCJx+HRp1ghT4KVFlcl1lKg0fSFAyNFEaKYC7fBX/7ObGpah7foXfvvPAccLnNLigwwa5cnTc+qaeUsb7eOMfW45GjQpx/9otaSg13e92ROLQaerx7Bmx0gLCRYqJAO1NLTAv3W8T6SusLhV5fPw4nimraKRTqizbldk7R2KzfxwjJuQUzCmxeb8/DrMH8Hba9/HyzX92ixu3odr7TSmRMmfOtDo1pInE0QF3eZChEcxZlz6bNeGX8LqppFHH5hRL1qWwak7zpkruuF1K+iAk1fIcdBlis1ljOn5YjtADR7msq3suMylN8kNIlVT3DbM5szDxtyBQAAmoI4n4T02R6lWx0fcIzKl+GSLnpWCSAjPt942aBBJkzmPXSC9wEWorqr2VbrkTZVmq1y6K9lrG9lCu0WrC92zgL8VH9OlgmcslmuTqejPSmWhCDrJx3UDWjl/PT8U34ujkT2RcYUrWKkfU4Z2cvZv25EoI8OPGY2vaTxqNp8qVSJPSVCvkh+M+f9lf4VHIhkrVbDA3qUwJMwUmNpWoUS+K59JnzXfuP812vtSbkR2vsZcy811Zpim2NdX4/uiV8WUiEY0pDcdOoJ3iOF9vC8bqrdpYJSNTR4cQcPdR2vCBqS2D181lYHXoZulHr2keGT7e0VsO4/04uNmDzxaPY86ECDY4R1Gx/3T6Vr3FHge3jLblqEuGzZKuP344Q5/vZ/L1dRN2Sm+rDaVlS9pzmkXbr2WsWznpMsBms/e60bZ8EM77vVK/UE8tfcpStBjZhwrBvtwJk6LqohVp/NlwPq4QxP49l5LSG2Lza1yshWtvEAHNA84fkqYnLB/GzGkP+O10KAklGlNGCu4yDxLkWL8MkGMcutIIQflqVK75BPMSFaj/8XBGtY/FffwpItIHdFJnTbm6tamZ7gVPI40YhFwLJSbiH5z+fsLsSd8wPHQNpwIUVPzfCIY0k+b6SqtcaL/MTz1ykJPlHf2pJ7s2XqP30mZZXc1BTozMQDSr0Nf7jNSB+oRL8wZhf28sw7/8gplDSlJYHU3YtfNsP/tbRu+j/2bNqG1YL+jHHEd7lNFBXNk8l0P7/Xksk5Oq7mC+c3GgekrXbbVl/N5fzX+b7NI+BZcpSyQrOATk5ruqRk2qKMNxuv4oa3CvLE2DpuUxLV+Fead7ZHA+1mk6nT/ek9abFR+A+/GbfNRXgdvpgCwvHPrtSeDuunGMM5/BGPtv2TzLlOib59kzeBw/Xcj0BUFOumTZrCZkx2TGWM5g8tiFrJoEkV7OrOr9NQfuZRoPyUmX5KU8m82x/aQDJe8cxNkz86NIwqqwoGhlWz6yH0z1SsVRPYsk6NI5fu6/iu2nUmYrGmBzwSmmwlJBIAcCaoI3T2VK6TmMGbqI1dPMUT+NItz/X5xvPEnXXumpX9Jrpzw5OZgi91LcQ8KCn9Ft/h/sX6gmLuaBNIXCk8OjBrPpl0zLrJi3ZMLZlhkkax7tZ3zVyZx6HsJfDsMp+s1E+q76GbtiGqLvSsubzRrOqp2hGefh5SDnnyx2qwn6dSsnJjWlY+ZrOcg5pW84N7OsN+Rvha1FTRHrviGZLdwUBBIJFP6AWd4beHtnP/rMvZwl2BWUBAFB4AUIiPr1AvDErS9CQN9MgBeRLe4VBASBfEig0AfdaF3yDif2+YpgLh/mjzCpYBMQ9atg519Btl4EdAU594TtgoDBBArT7JO2FL9+jONXZH4+a7AOcYMg8KYSEPXrTc35/OC3GHLND7kgbBAEBAFBQBAQBAQBQeAFCIgeuheAJ24VBAQBQUAQEAQEAUEgPxAQAV1+yAVhgyAgCAgCgoAgIAgIAi9AwHgBnbRmTIMhU5j2lS1y1tF+AZvFrYKAICAICAKCgCAgCAgC6QgYFtBZVqBhlzbULZmydH46SYpiNOw/hF4ty6NdhFocgoAgUDAIKGt/xS+RbizoalEwDBZWCgIFiICoXwUoswq4qQYFdKq6A1i4cwadqhp0WzpECoo16c1Ex/0cDrrMhfB/+evkKuxal5J2iRPHm0DAvGYP5l305uDSdzL25Jq+y1Q/Py7GXM/y8/CZga2plo7xy0+29qRmhgKLmm0YsPxHNnue4VTQZnqX0/FCIyPz9OvKSYgJ5buMYtFRJ06E+Up15zx/Oi1j4PslMm6ZoyhOQ4elbPP14HyEJ4dOLqV/s+I5bKujolrPrtR+eBKnf1LWcZfBWVZ+5eSPuCYIvAkEdNWvvPNbYdWJuZfOc/aBP56P/XALOo3j4aUMbpNuCy/p6Vvmqx1ciPieDua6bVM1HMvuB2eY3iqxIU4+THlv9TkuuI5C2hFROpLlZGnD/XFe3ULa50feobBqz9TTThwN9OZC5EWcL/7GkvkfUqto+na3GN0dr/Cv2+hk3ZL2Og7sfOjD2qGlkto7VTWGuFzN8jzRPmMuHB5AbnaElOfBq0uVt6Ojqip0WzSKpiG7WW/vTZiqKu0mT2DUTjPCmoziUJhY4/jVFYWXq1llU48ODg4MG9mBqhYKQjOri/dhR79+HDZPq7QK6w8YuWkE5f4+R4B2QwMjlh+99iTaZ061gYtZuagBQXsc2TfnV+4EhhAYaVg5lacrM5DMf6uJL2xG9MmNLFoWyLPitWg3dgzjflUS2GgSJx9p0ysp+/kyvl/cAN8V8xl/HmylLcQm7F1GTAsHDgTq2IVbVZP2vWoTdWQl7imbQMjhLCe/Mrsg/hYE3jQCuupXXjIwtaJ05aL4LOrHsqNxWJSV9soeP4nRu8ry9D07dgfoaBNe1L7np1nZbgmuqVuIaYiXtvbUsSeNbk2mNlSuX5Gg5XZMOqmiTOM29Bm/mK0dajO66wo8H0ntr6os5StI+0vXaE+b2j9x/SpU7i49W9TSDjZVykotYTgJCYHst/uQM4XTnilmDe1Yuq4jQX9JW5e+BNd1O5R3Z5MCOmUJGttPYPiQVtSvaY06RNrSY91yVqzxSNpKSfs2fnk7n1ZKGkwdcsqPIYk2qnmw9Us6S3u5xSXbbNJqMrtvL6ZscQ1R113ZP3cB64/eT1rANCGAXT074BgXn7yg6RncI6rS4lBXGtc1kQK6FCl5B0BoygsCKmrYz2d0m1s4Dp1AyW9W0C6zWk0MwV5eBKecV1jTdmM/bMN24DDdJakcGq38yLBHssP83dEsnVcCx64fsdP3aWaLZf4tT5d+YWrC9q1kSWpCVzyeN6TzzjrUkurlSR9pTTmTOnw8Rtq658+JzFh0JHF/RVf3BKp4LefzwbU59LVfloWEVfW70OGtB5yadYHUDc3kcJaTX/qdEikEgYJDQFUH+zP76HPhy7RtKs27sCx4JTZzOjJsTaattCTPdNavXMh5MUhqYgKvc8NHemPz8eFKcDlanBtCXW232ssI6DTR3L96jRsvtD2Xmke3rnDFLUb6ncPl+D3WnJnGJIe/+HypP2pVacqWus65U9a06l6Vn6/F06qbFRecrmFbqYw07Uu7A04cD29f52EKvCJNGbOlO4UOz2be+lvyA8wXg5+nd0sjnYVpOHMLP82oQ8DGuYzubMf8TeE0nr+ehYPKJw2FxnmzsVtX+gzaTXBsEPsGdadXk87SrwuDF7hnAKMOPsOW0SMZ3XcWjnfrYbdtCZ9USRtQ1aQGc1o/peGs8mWwjL/LnbtikdM8zfk8VZbAtSV96dFhKtucA4mV0cFV+H0Hxn2i4vj8tVyMTjPWOOVHhj3S0GWb0Z9SJdaKTjuccbnvjpP7VqYProelQSOuMnQZnBcqLCq/Sz+75qj8TuJ6M6nuKEo1oXENNV7H3Chmt4Fjt7bTv8x5zrmrqfJ/tlhlsVtF7V5dqBp+AuezGfenNZRzdvllsGviBkHgtSGQff16NS6qKFS2Hh3tu1AxSJq64S67z+zVmJtOa8LNP9jr/JyaH7anqrZfqVBJbIo+weP3ExTp1o4q1drR2uYkR87EYGJjnbWNlj7abDZ3MQOsj7N0wgFCXsPeOS0uE0XpbgwbVRHXMZ1YtisyaYNhD39Mm55i4aftKb1jh+T8MyJv3SbKOoo4TSxRd24ScE13AKa+4cqRg2fQBufufiV49/JUWrW2wnF7sux0mWRaoxezF7UmbN1Q9t9+TQm/8qqQTwzQaNJtXq3HJmU5uk3pQyn379lw8GG2971Q+dFnj2kDmn1gSfgFJ35be5bbESoqfTiW6d9vwvJBN2YfyN6uLN7p05XlhuxPKKx6stJ/Ca0tlWgi3Pih13ouJ8diytKlsVY8xivkGUVaVsTaphDlrJ7gev8JirdLYS01hBHp23DT+nTsWYWIgwu4mDGey2CAXs4y8yt7r8QVQeA1JCCzfr18z81ovdEDj41KFCrprS7mGo5DvufcAxlv1rkxrlBXlkdeT7vzmRPTKo/kWMqUjtzIlMYP7t24j6J1RcpqOxZL2lBCEc9Tt0Ocmjadfg7xWB1dwcXH1VCUKEFxqQ/pQWqIoqBI6wnM/MKcY4MWcSL0JfmdK7+Me5OJSQNb6lkUxWrdadzWpglXmJiivF2eUhKY3Eaz6rB7BEUrqVXaSuqLyxjQFW4wgG/2TKH6mRmMmO/OC+W1cZkIaa+YgLJeb/q2jOWU3V6y67h92eVHYVmG0sXV3D26GyeXiMSg8prvAip3PsgXfd/H4sChV1JmNY9OsLRtb3ZUfosWw0Yy/MDP0H0wW71SJ6xIlsZzVZoz87+flUQExvHuQN0ZatKkK+2qhuGyz4P0d6dPLYeznPzSbYE4Kwi8vgTk1K+88T6Of+d9xvKjzzG3LketLkMYsW0XFvb9mLsvTJo4ZeTj+VlWdVrK+ZRGRf2I4NzOWMlgWrr51VLQVkwK6OJiruB0qChbx6jY2dmbJzXiURQrRpH0oxFF3mPEd/0w3zOWlYeydiwZ2ftXKs4EheS5dvLg0OH8op2Hk/6Ii+J+hl5ZA3pZEuVIc+Wk+xXK9N+wKrB8x55Vex2w2jcR+0nHCS04Pb+vNLPeDOUq6vbtQfVIZ1Y7Renoncub8qOJiyNeo8Taupj0MpIU0JEQQkiwGjPp7bCoVKRjjN4Syshh9WNCfK8k/jxd7mLpuY3+dk35dZwr8WFhRGqKUrKsBYqEKEIDJXkKK0qVs0ATHk5khuptSoNenSgf7IxzasubXr9czvryS4ZPIokgUCAISJPwpTqvMpXzLWFO9csQOcYAo+FJ0A1u+Gq7TfzwOXuR+Dr/MNu+M2v+1I7A6dehUSdIgZ8SVSbXVaZSd5kEJUPTopECuMtX8X+hOXSZbSpEpZplITCQUEmZsqg2aIsjTmqnr64cxqA/FAR7S2125TgURYpgkRpyFMZ2+hw+sTjCjJknkuZiZxb9Gv2tjPfxxj+2HI0aFeL+tVvSUGq63+2IxKHT1OPZM2KlsegixdIHaIbRUJbtyuydI7HZP44RE0QwZxi9NyC1ifQVVpeKPD5+HM+UVTTSuS2//Cixeb8/DrMH8HZuvk9/dosbt6Ha+02lrv1kA0yrU0OaSBwdcJcHGRrBF9SV6p+BcjTJDwZVUn3UhF/C66aSRh2bS2+vSUIVVs1p3lTJHbdLGRszs8Z0/LAcoQeOcllH95xsznry6w0oscLFN4WAOpKI/9QUqV4VG32PwJzqlyFyXgpbKTDTzkPTJJAgc/RRI70sRqitqPZWuuVOlGWpXrso2msZ20PjG62s+iG9Oppz8+DfBEgBnaJ4UWmenNRDJ3UGaaIC8fO6h/bjV7V0QqMN6JLbP9NGXzDlqxKcnrWUk+EynTW++Xkm0UQTcpCN6waydvx6fiq+EUcnfyLjClOyVjmiDu/k7N20J1dCgB83HlvTftJoPFXSZ78mpalWyA/Hff5Zvp7T7YEpDcdOoJ3iOF9vC8bqrdpYJSdUR4cQcPeR8bt/dRsizuY1gUI2VKpmg7lJZUqYKaSJq5WoUS+K59Ln7HfuP03tiVOWaYptTTW+P3plfJlItNeA8mNqy+B1cxlYHbpZ+tFrmkfGr5r02RPvx8HNHny2eBxzJkSwwTmKiv2n07fqLfY4uGW07UV1peRFTnKUpWgxsg8Vgn25EyZFukUr0viz4XxcIYj9ey4lfWUu2fzHD2fo8/1Mvr5uws4L0FBatqQ9p1m0/VqGOmr2Xjfalg/Ceb9X6hfqaUVCPuec8yuvC5nQJwi8RAKaB5w/JE1PWD6MmdMe8NvpUBJKNKaMFNxlHmTKsX4ZIMc43ki97eWrUbnmE8xLVKD+x8MZ1T4W9/GniEgf40idNeXq1qZmuhc8jdTTH3ItlJiIf3D6+wmzJ33D8NA1nApQUPF/IxjSTJqjK61yof2iPvXISY7smEpJseoNqNc0Aet6Lek9eSi2AdsZ/ZM21pD8kYI2Vbx2Tn8mQvHxqE0tsTSTzsdV4KNFQ6lxay/rr5ager0SqYk1cQ8Iuh6e9mW/cUC/cilSB+oTLs0bhP29sQz/8gtmDilJYXU0YdfOs/3sbxkNjP6bNaO2Yb2gH3Mc7VFGB3Fl81wO7ffnsRxXlKVp0LQ8puWrMO90jwx3xDpNp/PHe177LlE5mF7HNKq6g/nOxYHqKV321Zbxe381/22yS1sCQHJcVaMmVZThOF1/lHW41ZDyEx+A+/GbfNRXgdvpgCwvHPrtSeDuunGMM5/BGPtv2TzLlOib59kzeBw/Xcj0BcEL60rO8ZzkKCwoWtmWj+wHU71ScVTPIgm6dI6f+69i+6mUGajSGkw7JjPGcgaTxy5k1SSI9HJmVe+vOXAvfZeiObafdKDknYM4e2Z+FEm2GMA5x/x6HQuy8OkNJqAmePNUppSew5ihi1g9zRz10yjC/f/F+caTdO2VnvoldVvIk2ME1HEPCQt+Rrf5f7B/oVqac/ZAmq7hyeFRg9n0S6ZlVsxbMuFsywxKNY/2M77qZE49D+Evh+EU/WYifVf9jF0xDdF3peXNZg1n1c7QjB0xOcqR4VNcBHd9g2g3ahPbJicQddcPj/2zsVvxJ/6JkaMSi6KFIfY/aVpMRnma+AQpuLbEQppEpzB/n7YfFMXMfAjfuQ3JkFAdsIUvbL/h0mu2UprC1qJm5hhXBnGRRBAQBAosgcIfMMt7A2/v7Eefudr1msQhCAgCRiMg6pfRUApBhhHQNxPAMGkitSAgCOR7AoU+6Ebrknc4sc9XBHP5PreEgQWNgKhfBS3HXh975Xyu8/p4KzwRBN54AoVp9klbil/fxfErom/ujS8OAoCRCYj6lS1Qk4aMvuDI0DraLzJ0HQkErOhL7zne4kVTFx4Z58SQqwxIIokgIAgIAoKAICAIvAiBQpSsLX0hXCjLljXJQjU8DwsgQFoYXRy5IyACutxxE3cJAoKAICAICAKCgCCQbwiIOXT5JiuEIYKAICAICAKCgCAgCOSOgPECOmntmQZDpjDtK1vExLzcZYa4SxAQBAQBQUAQEAQEgdwQMCygs6xAwy5tqFtSxxi4ohgN+w+hV8vyZDflMTcGinsEAUHg1RNQ1v6KXyLdWNDV4tUbIywQBAoQAVF3ClBmFXBTDQroVHUHsHDnDDpVNei2dIhMKN9lFIuOOnEizJcL4ef502kZA98vIa39LI43gYB5zR7Mu+jNwaXvZOzJNX2XqX5+XIy5nuXn4TMDW1MtHQXFmvRmouN+DgddlsrPv6o1hBoAACAASURBVPx1chV2rUtJS03m7sjWnlRxCixqtmHA8h/Z7HmGU0Gb6V3OkNIq02ZFcRo6LGWbrwfnIzw5dHIp/ZsVN7BeyNElJ01mliqq9exK7YcncfonZT82mXIsa9F9+Vb23fHm/H/u/HViGZ+3KJHr/MpsmfhbEMjfBHTVnbyzWGHVibmXznP2gT+ej/1wCzqN4+GlDG6TbgsvqTaW+WoHFyK+p4O5bttUDcey+8EZprdKbIiTD1PeW32OC66jkHZElI5kOVnacH+cV7eQ9vmRe+iXo6w5iI2h3mwbVyOtA0lVhf5HLnLm2BCqSsOEZj1X4xad9XmifcZ4hq6iXTa+6rTSvBJt567hVz93zj/04czt42zfNYW2lZKePIoSH/NDpD8nd/UibafJJD5u+3pjlfLI0COHou2ZmZhfflJ+XcX1ngs798yiZxPtnuL6jzweHVUTX9iM6JMbWbQskGfFa9Fu7BjG/aoksNEkTj7Sb7BIUTAJqGzq0cHBgWEjO1BV2mgvNLMb8T7s6NePw+ZpxVZh/QEjN42g3N/nCNBuaCBV2G6LRtE0ZDfr7b0JU1Wl3eQJjNppRliTURwKk79Gtl57Eu0zp9rAxaxc1ICgPY7sm/MrdwJDCIyUr0eezUrKfr6M7xc3wHfFfMafB1tpy64Je5cR08KBA4Eyds/WmiuHj5w0mfNGVZP2vWoTdWQl7imbUsiRo7Ci9arNzOt0iy3j7TgZVIx3Rs5k9N7VxH1gx66bYtmUzKjF368ZAV11Jy9dNLWidOWi+Czqx7KjcViUlfbKHj+J0bvK8vQ9O3YHyGxbDLH5+WlWtluCa+oWYhripS0edexJk7PUHORobvzOyh96s2XcWDr8OpZj4VDyk8l8+c4ddnTYmfi8UJxYwmfN1qCUHimW3eeycYaCDd3m4RKl3cb2ESE69rDWbZCKulPWsmSEBqeFM1h5PgSNdQ0atSxKVIZNbJVYdR2HQ8e/WXAsKutOR1LoqU+OwqQ4ZaX8urHCjsV/xSTmV6txE5n1VxVo/hX7M+z4k9XapIBOWYLG9hMYPqQV9Wtaow6RtvRYt5wVazyStuLS9p5c3s6nlZIGU4ec8mNIoiw1D7Z+SWdpL7eUHTRMWk1m9+3FlC2uIeq6K/vnLmD90fvJ68qoCdu3kiWpdrji8bwhnXfWoZYk+6SPaOCzZtHrcEZFDfv5jG5zC8ehEyj5zQraZXZLE0OwlxfBKecV1rTd2A/bsB04THdJKocJAezq2QFHaQPmpJJyBveIqrQ41JXGdU2kgE7uPi4y7JHsMH93NEvnlcCx60fs9H2a2WJ5f8ux2aQOH4+Rttz5cyIzFh1J3BfR1T2BKl7L+XxwbQ597SdvXSY5uuSkyeSZqn4XOrz1gFOzLqTtfShHTtGWfPiRDb7ffM66P+4kbg901UdDDe+f6DeoHnvELhXyypBIlT8IqOpgf2YffS58mbZdoXkXlgWvxGZOR4atybSVlmS1zrqTCzkvBkBNTOB1bvhIb2M+PlwJLkeLc0Ooq+1WexkBnSaa+1evceP5i1lNjnJiufrdEvb328jwCU35Z0lhhs9ry6NNg9nulRSpaR7f59bV+5IR2tGEGDQaBWF+EocHBryQa12Q9tFu1KI6muOT+eZHJ5KeBN54HsvknzoCz9OP6LhgKI4uq/DN7L9cOVIoGH3PH3+vSDRe3lzyKUz9y9Po1MGaP7f8pyNQTLND6i8sTMOZW/hpRh0CNs5ldGc75m8Kp/H89SwcVD5paCTOm43dutJn0G6CY4PYN6g7vZp0ln5dGLzAPUPkrQ4+w5bRIxnddxaOd+tht20Jn1TRNSCmwqLyu/Sza47K7ySu4m39BUt/fr49gWtL+tKjw1S2OQcSK6M+FX7fgXGfqDg+fy0Xo9N806QGc9pz0nBo+TJYxt/lzl1DXgZk2CMNgbYZ/SlVYq3otMMZl/vuOLlvZfrgeljK6ftOlx36bFaUakLjGmq8jrlRzG4Dx25tp3+Z85xzV1Pl/2zTuutlZLE+XVoRctKkqVJRu1cXqoafwPlsxvWh9MlRWBahiKmGx5Hp3lZjpAeKr4YK9WtJOy6KQxB4nQlkX3dejdcqCpWtR0f7LlQMkqY9uRvcZ/ZqzM5Oa7QrG+Y6UWToFGZ8N50eij9ZsdQjOeDK7qZcnFc/5PbVMFTvdadbHWkP2WyPeG6u/ZZDFgMYPbBC1mklsuVkVKCJjuGJWoGpuaneYVelonQ3ho2qiOvk4Sz72QUvD3dOfjeDHw8reffT9snjwc+IvHWb23eiiNPEEnXnJgHXbkm/29wLfZohYlTfcOXIwTNcOH6Qn8dv4pJZU1q1tspgiMKqJ6tCpXFo318Y9+4tNo5Yz2WxlmC2xeS1uKDR5PhmkcFHZTm6TelDKfdNbDj4MNv7TGv0Yvai1oStW8H+2wYOHeizx7QBzT6wJNzbid8mjsC+0zCW7oP2329ieo+M5dmQ/NFls7J0aawVj/lPWlCzSKWKWNtUpJzVE8LvP0FRqhTWufzKSJeuzLbqTWNan449qxBx8AgXc6ijuuRowi9x6YYCWzs73ilnLrUB0ktchaqULSq94JmZYWpgYJzZdvG3IJCvCcisOy/fBzNab/TA49FVzt38k8UDVBye8j3nDO2pkmtooa4sj0w3dy1iDZ1z8/amV46GyD+/Y/uV+nTvUxHPb1dz7qGM3gK5fqSme8a/c0fx7ekqjD1zgl+2TaRXqwoU0iFH88iNzd9epO74YbxTJHMC+XKS7lRgZlObDnOG0CzWnRPOYYmjHDkdJiYNbKlnURSrdadxW5uWVGFiivJ2eUpJbW+IPinZaFCH3SMoWkmt0toHoNR9mJxO8+gES9v2Zkflt2gxbCTDD/wM3QezNbmrNBtx4vQbQkBZrzd9W8Zyym4v2XW8FW4wgG/2TKH6mRmMmO9OytQuYyFSWJahdHE1d4/uxsklIrHsXvNdQOXOB/mi7/tYHDhksE79NsdzVZrr8r+flUQExvHuwNx7o1+X1Dcvg6FJk660qxqGyz4Psptykq2c+Ktss/+GKj+PZ931r1Br57U8f8wTMyXP/wjn8ctoe3OPTNwpCBiVgJy6Y1SF2QqL4995n7H86HPMrctRq8sQRmzbhYV9P+bu0x8kZCs2uwvPz7Kq01LOpzQY6kcE52bGigw5quptaV0vjqhIJfV7tqf81p0EGjJYk50Pmc5rHl9hl10PDtb4PzoN7EffX47wldc6Zgxai2eGwFhN6O8/8MeYLXzx2Ta25kqOKf+3WorHvlNhYqokIfA0G/tNZbeMUUwTFNJrckIg+4cO55fMc9jiorifoVfWgF6WREekuU7aRlyZachV/ZgQ3yuJP0+Xu1h6bqO/XVN+HeeaOhdPJmeR7LUjIE0c7duD6pHOrHbSNbFUgeU79qza64DVvonYTzpO6EsYOdDExRGvUWJtrf26KCmgIyGEkGA1ZiVt0HYyxch+0cnZZnVYGJGaopQsa4EiIYrQQClTpQ8KSpWzQBMeTqRBDVTOupKKi5w02pSmNOjVifLBzjints7pC5x+OU8u/cK0pr+zsGxZSpg9J6pQD753G0+sm4/hk6Rfu7IuHCpYBNSopTqvMpXzLWFOdccQOcYgpOFJ0A1u+Gpfe/3wOXuR+Dr/MNu+M2v+3CGrw0ajTpB6h5SoMrmuMpWGDyQoGZoojRTAXb6Kf+Y5ZIa6ok+Osiz/WzySty5/j90kE2Y5j2F83xNM/i1Ub0+WoaYkpZfmIt48x7555/hrcy+WuHzD3Enn+GTmpYz+P7/Cb9954Djhcxpc0KVJn5x4Lknzjhftf0p1+xUs6hHJzasRsnxSxvt44x9bjkaNCnE/cRg13e92BBny5NkzYqUFhIsU0zUnTpfhMs5pkgu3yogyZagVSfIpARPpK6wuFXl8/DieKStkpDNVWbYrs3eOxGb/OEZMyCmYU2Lzfn8cZg/g7bTvyOU7/ewWN25DtfebUiJlaNC0OjWkicTRAXfJ8HGT1NDlpEufzdqhSa+bShp1bE6xZF0Kq+Y0b6rkjtulpA9CUi1/MV1aMfrsSVVl1piOH5Yj9MBRLuvonpMtRwrdYkICCQwtQocFX9Iw8ii/731Zja78LBYpBQGDCKgjifhPTZHq0n6k+h5XOdUdQ+QYZKDcxFJgpp3GoUkgQWYvuUZ66YxQW1Htrf9v787joqr6B45/hhlEwYVEUXFhDfdHXFos/ZmKpTz5KIoYmY+pheKS+75iWOnzFFlZZlZuoaUpKeQCPmq4C4pLhJoFJMqiuGaGMPyuimzOMDM4Iuh3Xi//YO6533PO+97rnHvuuecUmO5EaVC5uFfh1rbC/x8aW477SaeisudIhna+yLpZIZw6uoIFS6/SPnAM7fLmCLmf+MXvm/XHbvb/oqW2WwNlLoSiHy3paxezUdWDPp42xY570x0nhxupiUpbLJ5tM6awIuMlxs/pQDUjhqhoclLC+GJRfz4b8zmfVvuCNVtPkHGzEjWerMPlH0PYnZTfDZGdEM+vV6vTefxIDqn3kqGxx7liPGvWnzDuLTzlLY/nhveh7tk4EtOUX+sq9Wjx6lB61U0mdG2s9M4VPS8epb8r2lHf2Q4rTQOlp0aFxq4+rk0u87fyOnviufxxmBa1WuPhpiXukyOFbyZuW1jSfNRYOqkimbvsLLaN3LHNNdJeSyEh6Ur+XYylBwMWzaK/C3jZxOM9OaZwj5Ch8mTFE/ZVDK++O5qZYy+wOOIy9fym4Ov0G2sD9hUuW7F5GVFmJa91H++iz0fTmHtKQ4hyV9dcmbakM1EELT9Z+Nq637xMMKzwjBcdHZKJCD2i49o0ol7KsalYxw1Xl7o08HgWz9d96VDnNEtfncsOU6Z+eZSuA6lL+RXIucj+cGXowX/eZNrki6yKSiX7iRbUUhp3RR8SFHvtmBDHPFhKT7qDMw3crmP1RF2a9hrKiM6ZRI/ZyYWCDTqls6ZOY3fcCty85ShPDFJOpvLnhZ/Y+r/rzBj/DkNTF7IzQUW9l4fx+lPX2avMcnHrzfy8T3FxjGxA3o5VXBz1k7wyowc222axYv+dwb2xHy1m/79nEzBsGXve+eWeY1JiS6Xd0nnmSFwTo4iNS+FqdmXqd+hH/7bZxM0+pvsljL8O8e0XJ/GZ91R+tiWKo8y1N3U9Xt9PZuDSfXyYW1d9dVE6UK8TO/vf+P8xiqFvDGba6zWopL1G2sn9LN+9qvB+1/7HwhHLqD6nLzPX+GNxLZnjX80iPPQEV/XlUPB7lTVVGnjQw38ALvWrob6RQXLsHr70C2b5TnOPgjKmQJKmtATUjQfw4Y4AXO522TvPZ7WflvNLBuZPAaAURu3qhqNFOltPXbn3ZQgLe5q1dsDSwZHZUd0LFT1z6xRe6rU2vzcrK4HoyNP08FWxLyrhnhsOw+XJJmnRaEZbTeUt///y1XRLrp3ez9oBo/n0QJG3A4rLy6gya0lZMYG3bKYyYdTbBI+HjCMRBPvMZUPReYfuNy+VsYZWePT2pEZiGBGHiv5cKfRG1UuN27CFLPG35fzpeGI3zePNz9Zz+Jyx08uU1tkp+YiAMQJazn41iYn2M3lrUBALJluh/esy6ScOEvHr9QL/Xxm4dpTbTuPiGFMmA2luXiLt7A28AtcR+raWm39eVIY6HeLHEQNYsrLINCtW7Rm7W5k+qcAn50ooY5wmsPPvFDYGDKXKO+PwDf6SgVWVqTWSlOnNpg8lOKRIb3uxcQyUt+BmvXEmEtt1CK80P0vohDDSc/uctMkbWboygEX+/rywaCyR5rppVFmRlW1D64AZvOpck8qaTC4lHGfP20P5eOHvtzsR7u0805L8zVK2jW9Nl7t1KlEcZWjPzsUs29ODUbN8WPPySpKLGeqj8rB2M6XNbMLRkKQiIALlVqBSO6YfXUyrkL70kfniyu1hlII/BAG5dh4CumR5S8DQSABREgEReAwFKrbzokONRLatj7und/Mx5JAqi4DRAnLtGE0lCc0sYMzrOmbOUsKJgAiUbYFKPNW7I9VOfUvkcZNesS3b1ZLSicADF5BrRy+xpjkjD6xhUEN9E2tmk/C+Lz4zj5bOTWRZK49eOOM3yCNX460kpQiIgAiIgAiIQIkEKlLDXXlDuOK9I87uhMvh77QEEpQJ1kvnU9bKc/+1lgbd/RtKBBEQAREQAREQARF4qAIyhu6h8kvmIiACIiACIiACInD/AtKgu39DiSACIiACIiACIiACD1XAQlXTl4UFFtLdv9JLx8zHD7WMkrkIiIAOAQv3IazM2MecbtY6tspXIiACZUFArtOycBQejzJY5GRsIei5f9Ln6X/zxUEdE4g+Hg5Sy1ISsHLrzuzDRwmb14bCr1irqNrSh3FrQvkx+RgH0g+ycXswAzvUzJ9bx/JpJsXHc/jPU/f8i/l5Kh6WJlRCVY3mAfNYFhfD/guHCN8+D7+nqumYINJATHPFyc1Gv0/Rcqhx7tkN90vb2fpTgTXSKjrSOfAzVp+K5cDFo0TGfM2k1xpho28cctGw8rcIiIAZBfRcp2bMQUKJwF0BDcrSHufiLysz0tWi1XWZY1hOjQcjoLZrgmdAAG8O98TJWkVq0WzUjngFjaB1ynd87n+UNLUTnSaMZURIBdJajiA8TTk3s35mRd++/GiV3zpRVW/H8CXDqPO/PSQYfT9iQe3X5vPRu82Iez+QMfvBQ1lqa+z38/nzuQA2nClmKu5C5TZXHGWFDEM+93i50dnbncubPiA6b5GVSrQOXMK7vmdZOm4wM39V4eI7homffI7mXDfmbtOxOG7RuPK3CIiA+QTUuq5T84WXSCJQUMD4MXSa2rSdEMyKXw4pPRoxSo/GBwzuVBt9M8oIswjkC6hx9Q9k5AvX2ThoLKt+09Fgyk7g256e9B/8KT+E72LvhpXMn7yOFBsPWjTO7cvL+ZOzR45w7EDsnX8Hk7Dz6YtH2gpmT9lRZBH7Yvw1Den1lrLEzQ9BTA3awJ6tG/hs4Dv8T9We1wa4G39OmyuOkqNBnyLVUTftimeji+xcd4C8l/w1T/L8i3VJXb2AxetiOHk0ms2B7xP2Rw1atHU0vl7F0MkmEXhsBdQN8d8bR8SC55QVkXM/Vl2ZfyGOL4fX1TlLv87rtARxHltzqbhJAkY26CrTJuhrPhzvxu+fTGZUn2ms/q0hg9cuZUz7yiZlKIkfR4FsTr7nS3fPSSyLOEOmno7gnJtZBSaUVGHtUAubrCQSk3RPblvp+QBG91YTqTxiPHzNeFdVzZa0cNVyZMs+qg5czJbfluNXaz97orU4PuuBrZGPJ80VB6XWxvjk11CNu3dXnNK3EbG7wJxN2SkkJdzEvqMnTavcqYSlcyua2l8iLvqP0pms0/jDIClF4BEX0HOdPuK1luo9PAGjVopQ1fknAwc5cnJedwIXnr79w7Dvp1+xfHIDb4zzYumu7ziv50f64VVNci5TAjk5BRavNlwyS1dvZgR1IG3RIEJ/19GjZ1EHr4l9qBn9EYvDLpkU28LenuqqqxxRJrCs3L4e1e0qUsf2OnvPXUfVqibVlW7nC0Y8vjVXnNsapvhYNqVLT0cuhM3hcME5OHPSCJ84izbfzWHRwZZs35RErZeVnsjgkXywxYQWr+HDIylEQAQMCei7Tg3tJ9tFoIQCRvXQaZo0p2GFsxyKSsy/y89K4GBUMpbNm+NqymD0EhZUdnt8BCo168f88Fk8uWsqYwKjyRsiVoDAookPvu0z2bnwe/R04BkBlsUvQX15uak3C/beNCK9viTmiqMvfuHvNS270ckpjR3rY8gstEnp1azthEPlFHYv3cDRDGVjdmUa+vTm2QYyOMI4XUklAuYR0H+dmie+RBGBogJGNehu7aT/KZR0zRVFlb9LKqDCps0QFoRPoO7mcfgPCSNZZztLTWPf7rhkRLBx62WTeudulUyblkZGThVq1LZGlX2V1DOXyVLZULOONTnp6WTofsJ7T6XMFeeewMV+YUkz7xdxOBtBxP7CzTkqPkPA4sFoPhvKpPdWsfrtSbzx9GBCVd5Mnt4BmdykWFjZKAIGBLRolYcFaktjHmwVc51iShwDRZLNIlBAIL9Bl3OTzFuDmyrboLyEWOiTFXeM+EwHWrUvMLBa48RT7ety89hxTuv80RVnETBNwKJ2N2aEDMcudDTDxkaSqu+xp8adDl3rcTUykkN6X9y0wO55PwJm9KOVfeH7lpz0WI6ctuAfXdpSNfdcV9m2pW1rCxL3xRZ5ueLBxzFJqUILuvyrDqkbNnOsSHvOororzrUyOXPqXF5Pes6V4xw+dgObenWobPTtm0klksQi8HgIaDO4cF5LZRdlPVJD11Ix1ymmxHk8ZKWWZhLIv9XIucLvv6SiHvQKb/ils/tKNeryM+vCfiX7XBhffzWQhRMXMDvzEzbFW+DmN4I3miWxrsePMn7OTAfjkQ5T0Y76znZYaRrwRAUVGrv6uDa5zN8Xz5B47i+ll82S5qPG0kkVydxlZ7Ft5I5tLoj2WgoJSVeU+9o7H4tarfFw0xL3yRH+1odm6cGARbPo7wJeNvF4T44hr32YFc+6j3fR56NpzD2lIeQANFemLelMFEHLTxZ+eaA04tyqg0GfOxWt8IwXHR2SiQg9QtH7KG1aDDHxVrw+YxY+fy4nJhns2/VniJeG0/+NRvktko8IiEBJBXIusj9cGebwnzeZNvkiq6JSyX6iBbWUxl3Re8/irlNMiFPSosp+j6dAgb7jLI4tCGR5s+n0+vgzfG6kEPf1TDaH/8pVZbqI6OmvM+bSVEaMfI8Pa+Rw4eef+Nr3Pb6KksHWj+epY1qt1Y0H8OGOAFzunnHO81ntp+X8koF4jdrDTQt7mrV2wNLBkdlR3QsFz9w6hZd6rc3rOVO7uuFokc7WU1f0P25VxnhGR56mh6+KfVEJRd7w1JKyYgJv2Uxlwqi3CR4PGUciCPaZy4Y/irR6SiWO8hjHkM9tESs8entSIzGMiENFf0KUzUpDdWm/0WjeUW62QtYyxVrLteQTHPxkNB8En8hrEJt25CS1CIjAHQEtZ7+axET7mbw1KIgFk63Q/nWZ9BMHifj1eoH/iwxcp8qVaFwccRcB0wRUHtZuMgjONDNJLQIPR6BSO6YfXUyrkL70mXVMpiF5OEdBchWB4gXkOi3eR7Y+MAFDIwEeWMYSWAREwDSBiu286FAjkW3r46QxZxqdpBaBUhOQ67TUqCWjIgLSoJNTQgTKhUAlnurdkWqnthB53MjXcMtFvaSQIvAoCch1+igdzfJWF3nkWt6OmJRXBERABERABERABIoISA+dnBIiIAIiIAIiIAIiUM4FpEFXzg+gFF8EREAEREAEREAEpEEn54AIiIAIiIAIiIAIlHMBadCV8wMoxX80BSzch7AyYx9zusmCXY/mEZZaiYAIiIB5BaRBZ15PiaZTQEXVlj6MWxPKj8nHOJB+kI3bgxnYoSaFTkBVNZoHzGNZXAz7LxwifPs8/J6qVsw6wjozUxYeLmNxcotp5dad2YePEjavDcWvBqnGuWc33C9tZ+tPd9c20+DQdQRBm7eyLS1OMdzPD1vn0//5Jwr4GOmsh02+FgEREAERKL8C0qArv8eu/JRc7YhX0AhaX9nK5/4BjBq8gH2aDowImU03+7sLB1tQ+7X5fPRuO66tCmSM32zCr7Rj7Pfz6V7PlNO0rMVRVoGwa8JL0z/mm6j5vOxSwXADVe1GZ293Lm/aRPSfdw+zlqxKFbi2/QuCXhnMKP+FHKjQidHfTOOFqrlpjHIuP6eNlFQEREAERMB4geI7CoyPIylFQL9AdgLf9vRkzc2s3AlxdxF9wYnnwrvRorGG8DRlVVJNQ3q91R5+GMfUoE1cVtYv2RudjeOR//DaAHfC58YbN5luWYuDGlf/QEa+8BtrBo2lxjvv00m/1O0t6qZd8Wx0kZ3TD3AjL62WtPUf8F7e33uJ+bs5L4U05Mn6arb/rMxNZ4yzgbxlswiIgAiIQPkUMKXro3zWUEpdJgRy8hpzt4qjwtqhFjZZSSQm3ZkkV1WzJS1ctRzZso+qAxez5bfl+NXaz55oLY7PemB7tyPPQG3KWhyllcXJ93zp7jmJZRFnyDS40J4ad++uOKVvI2J3fnOucLXVWDd4mr4D26KO387e0/kTDRtyNsAnm0VABERABMqpgDToyumBK8/FtnT1ZkZQB9IWvU/o79rbVbGwt6e66irnU25QuX49qtvVo47tddLPXUdVsybV1cbVuKzFuV3qnJwCC3cbqIdlU7r0dORC2CYO62jPqWx7Epz6M7viVjL66d/4YtjnHNOR7lYuupwN5C6bRUAEREAEyqmANOjK6YErr8Wu1Kwf88Nn8eSuqYwJjCZviFhehbL4JagvLzf1ZsFe5VFsiT9lLY5xFdG07EYnpzR2rI8hU8cuOVe2Ma+jD2/4TOXr6PoM3fAlr7eocE9Kw8737CJfiIAIiIAIlGMBGUNXjg9e+Sq6Cps2/gR/H4Dt+nH4j48kNSu/Btq0NDJyqlCjtjWq7MuknlG2qWypWceanPR0MoxcvrSsxTHtGFnSzPtFHM5GELFfV3NOiaa9Skrc8dv/Du1IwubQMvwGtuab0Xu50/wt3tm08khqERABERCB8iIgPXTl5UiV83Ja1O7GjJDh2IWOZtjYwo25W1XLSY/lyGkL/tGlLVVzx8upbNvStrUFiftiuVRo7JkFds/7ETCjH63sC5/CZS2OSYetQgu6/KsOqRs2c0xPe65QvBwtWuWJtVqdb2DI2aTySGIREAEREIFyIyA9dOXmUJXnglrSfNRYOqkimbvsLLaN3LHNrY72WgoJSVfQZsWz7uNd9PloGnNPaQg5AM2HT6IzUQQtP1n4DVdLDwYsmkV/F/Cyicd7cgx5nX1lLc6tela0o76zHVaaBjxRQYXGrj6uTS7zoua1uAAABrxJREFU98UzJJ77K298XYVnvOjokExE6JHc3rYCx9yiJs8N70Pds3Ekpilz01WpR4tXh9KrbjKha2Nz0xvhXJ5PIym7CIiACIiAXgFp0OmlkQ1mE7Cwp1lrBywdHJkd1b1Q2MytU3ip11qlB05LyooJvGUzlQmj3iZ4PGQciSDYZy4b/rjz4kTejlkJREeepoevin1RCUWmMylrcZQetMYD+HBHAC53rzbn+az203J+yUC8Ru3JbYxZ4dHbkxqJYUQcKvAs+m6lVdZUaeBBD/8BuNSvhvpGBsmxe/jSL5jlO3NHIhrlbLajKoFEQAREQATKkIDKw9rN4EQKZai8UhQReDQFKrVj+tHFtArpS59Zx4ybc+/RlJBaiYAIiIAIlEBAxtCVAE12EQFzC1Rs50WHGolsWx8njTlz40o8ERABEXgMBKRB9xgcZKliWReoxFO9O1Lt1BYijxv5Om9Zr5KUTwREQAREoFQF5JFrqXJLZiIgAiIgAiIgAiJgfgHpoTO/qUQUAREQAREQAREQgVIVkAZdqXJLZiIgAiIgAiIgAiJgfgFp0JnfVCKKgAiIgAiIgAiIQKkKSIOuVLkls4chYOE+hJUZ+5jTzfphZC95ioAIiIAIiMADF5AG3QMnlgwehICVW3dmHz5K2Lw2FD87thrnnt1wv7SdrT8pKywU+eiPo6JqSx/GrQnlx+RjHEg/yMbtwQzsUJNCF01FRzoHfsbqU7EcuHiUyJivmfRaI2xyly8rmp/8LQIiIAIiIAIPQqD438IHkaPEFIH7EFDbNcEzIIA3h3viZK0i1VAstRudvd25vOkDonMXVLi1i8E4ake8gkbQOuU7Pvc/SpraiU4TxjIipAJpLUcQnnZrPu5KtA5cwru+Z1k6bjAzf1Xh4juGiZ98juZcN+Zuu7cBaai4sl0EREAEREAESiIgPXQlUZN9Siagqs7/BYexI/lHpv3TDp2dWMWmUePqH8jIF66zcdBYVv1WZEkwHaVSN+2KZ6OL7Fx3gBt5242Ik53Atz096T/4U34I38XeDSuZP3kdKTYetGicex+keZLnX6xL6uoFLF4Xw8mj0WwOfJ+wP2rQoq0jah3lka9EQAREQARE4EEISIPuQahKTN0CGifaeLpRzdaFtu2ddDd4ik2Tzcn3fOnuOYllEWfINLhonRp37644pW8jYnd+cw5lLQZj4uTczCqwaoMKa4da2GQlkZiUO/lvdgpJCTex7+hJ0yp3mqeWzq1oan+JuOg/ZMUH3WeBfCsCIiACIvAABOSR6wNAlZB6BG7GsmzoHG50UrHv88PoWIIeDKXJycFgO+5u9pZN6dLTkQthczhcsD13a7spcZTklq7ezAjqQNqiQYT+ntszmJNG+MRZtPluDosOtmT7piRqvdwegkfywZZrehDkaxEQAREQAREwv4A06MxvKhH1Cmi5sDuET3frTaBsMCZNcfvnb9O07EYnpzR2rI8h07hddKaq1Kwf76ydiMuuqQwLjCZ/KJ7Sa1fbCYfKKez+cgNHLT3okl2Zhj69eXZVLFsTZRkvnaDypQiIgAiIgNkF5JGr2UklYNkQsKSZ94s4nI0gYn9Jm3MqbNoMYUH4BOpuHof/kDCSbxaoXcVnCFg8GM1nQ5n03ipWvz2JN54eTKjKm8nTOyCTpJSNM0FKIQIiIAKPg4A06B6Ho1xm6miB3fN+BMzoRyt7faeeMWmMqFCFFnT5Vx1SN2zmWAnbcxa1uzEjZDh2oaMZNjaS1CLPiC2qu+JcK5Mzp87ljZfLuXKcw8duYFOvDpX1VdGI4ksSERABERABETBFQB65mqIlae9PQHkkOWDRLPq7gJdNPN6TY+4dR2coTUU76jvbYaVpwBMVVGjs6uPa5DJ/XzxD4rm/8sbXVXjGi44OyUSEHqFgp1peBQzGsaT5qLF0UkUyd9lZbBu5Y5u7s/ZaCglJV9CmxRATb8XrM2bh8+dyYpLBvl1/hnhpOP3faM4bfgn3/jxlbxEQAREQARHIFZAGnZwKpSeQlUB05Gl6+CovRUQl6H4L1EAadeMBfLgjAJe7Z67zfFb7aTm/ZCBeo/bkNt6s8OjtSY3EMCIO6Xz1AoNxLOxp1toBSwdHZkd1L2SUuXUKL/Vay6WseJb2G43mnRG8EbKWKdZariWf4OAno/kg+IQyGlA+IiACIiACIlA6AioPazejXxosnSJJLiJwnwKV2jH96GJahfSlz6xjuhuO95mF7C4CIiACIiACZUlARvmUpaMhZTGLQMV2XnSokci29XHSmDOLqAQRAREQAREo6wL/D+7QnyIgJQ1tAAAAAElFTkSuQmCC;" vertex="1" parent="1">
          <mxGeometry x="1270" y="1590" width="429.27" height="108" as="geometry" />
        </mxCell>
        <mxCell id="h1ksGG6KDdF-CpPXrRE5-13" value="" style="whiteSpace=wrap;html=1;aspect=fixed;" vertex="1" parent="1">
          <mxGeometry x="1530" y="1420" width="40" height="40" as="geometry" />
        </mxCell>
        <mxCell id="h1ksGG6KDdF-CpPXrRE5-14" value="" style="whiteSpace=wrap;html=1;aspect=fixed;" vertex="1" parent="1">
          <mxGeometry x="1530" y="1500" width="40" height="40" as="geometry" />
        </mxCell>
        <mxCell id="h1ksGG6KDdF-CpPXrRE5-15" value="" style="whiteSpace=wrap;html=1;aspect=fixed;" vertex="1" parent="1">
          <mxGeometry x="1370" y="1500" width="40" height="40" as="geometry" />
        </mxCell>
        <mxCell id="h1ksGG6KDdF-CpPXrRE5-16" value="" style="whiteSpace=wrap;html=1;aspect=fixed;" vertex="1" parent="1">
          <mxGeometry x="1370" y="1420" width="40" height="40" as="geometry" />
        </mxCell>
        <mxCell id="h1ksGG6KDdF-CpPXrRE5-17" value="" style="whiteSpace=wrap;html=1;aspect=fixed;" vertex="1" parent="1">
          <mxGeometry x="1370" y="1340" width="40" height="40" as="geometry" />
        </mxCell>
        <mxCell id="h1ksGG6KDdF-CpPXrRE5-19" value="" style="ellipse;whiteSpace=wrap;html=1;" vertex="1" parent="1">
          <mxGeometry x="160" y="390" width="160" height="160" as="geometry" />
        </mxCell>
        <mxCell id="h1ksGG6KDdF-CpPXrRE5-20" value="" style="whiteSpace=wrap;html=1;aspect=fixed;" vertex="1" parent="1">
          <mxGeometry x="570" y="450" width="80" height="80" as="geometry" />
        </mxCell>
        <mxCell id="h1ksGG6KDdF-CpPXrRE5-29" style="edgeStyle=orthogonalEdgeStyle;rounded=0;orthogonalLoop=1;jettySize=auto;html=1;exitX=1;exitY=0.5;exitDx=0;exitDy=0;entryX=0.214;entryY=0.501;entryDx=0;entryDy=0;entryPerimeter=0;" edge="1" parent="1" source="h1ksGG6KDdF-CpPXrRE5-23" target="h1ksGG6KDdF-CpPXrRE5-24">
          <mxGeometry relative="1" as="geometry" />
        </mxCell>
        <mxCell id="h1ksGG6KDdF-CpPXrRE5-30" value="172.16.20.6/30" style="edgeLabel;html=1;align=center;verticalAlign=middle;resizable=0;points=[];" vertex="1" connectable="0" parent="h1ksGG6KDdF-CpPXrRE5-29">
          <mxGeometry x="-0.1306" y="-1" relative="1" as="geometry">
            <mxPoint x="-15" y="-11" as="offset" />
          </mxGeometry>
        </mxCell>
        <mxCell id="h1ksGG6KDdF-CpPXrRE5-41" value="eth 1&amp;nbsp;" style="edgeLabel;html=1;align=center;verticalAlign=middle;resizable=0;points=[];" vertex="1" connectable="0" parent="h1ksGG6KDdF-CpPXrRE5-29">
          <mxGeometry x="-0.8986" y="2" relative="1" as="geometry">
            <mxPoint x="17" y="-8" as="offset" />
          </mxGeometry>
        </mxCell>
        <mxCell id="h1ksGG6KDdF-CpPXrRE5-43" value="172.16.20.8" style="edgeLabel;html=1;align=center;verticalAlign=middle;resizable=0;points=[];" vertex="1" connectable="0" parent="h1ksGG6KDdF-CpPXrRE5-29">
          <mxGeometry x="-0.8986" relative="1" as="geometry">
            <mxPoint x="17" y="1" as="offset" />
          </mxGeometry>
        </mxCell>
        <mxCell id="h1ksGG6KDdF-CpPXrRE5-36" style="edgeStyle=orthogonalEdgeStyle;rounded=0;orthogonalLoop=1;jettySize=auto;html=1;exitX=0.5;exitY=1;exitDx=0;exitDy=0;entryX=0.583;entryY=0.333;entryDx=0;entryDy=0;entryPerimeter=0;" edge="1" parent="1" source="h1ksGG6KDdF-CpPXrRE5-23" target="h1ksGG6KDdF-CpPXrRE5-33">
          <mxGeometry relative="1" as="geometry" />
        </mxCell>
        <mxCell id="h1ksGG6KDdF-CpPXrRE5-42" value="172.16.1.30/27" style="edgeLabel;html=1;align=center;verticalAlign=middle;resizable=0;points=[];" vertex="1" connectable="0" parent="h1ksGG6KDdF-CpPXrRE5-36">
          <mxGeometry x="-0.0592" y="-1" relative="1" as="geometry">
            <mxPoint y="-11" as="offset" />
          </mxGeometry>
        </mxCell>
        <mxCell id="h1ksGG6KDdF-CpPXrRE5-23" value="BLUE-SCR&lt;br&gt;&lt;br&gt;172.16.20.1&lt;br&gt;172.16.20.6&lt;br&gt;172.16.1.30&lt;br&gt;172.16.20.22&lt;br&gt;&lt;br&gt;22" style="whiteSpace=wrap;html=1;aspect=fixed;" vertex="1" parent="1">
          <mxGeometry x="900" y="400" width="140" height="140" as="geometry" />
        </mxCell>
        <mxCell id="h1ksGG6KDdF-CpPXrRE5-24" value="" style="whiteSpace=wrap;html=1;aspect=fixed;" vertex="1" parent="1">
          <mxGeometry x="1310" y="400" width="140" height="140" as="geometry" />
        </mxCell>
        <mxCell id="h1ksGG6KDdF-CpPXrRE5-25" value="" style="ellipse;shape=cloud;whiteSpace=wrap;html=1;" vertex="1" parent="1">
          <mxGeometry x="550" y="450" width="120" height="80" as="geometry" />
        </mxCell>
        <mxCell id="h1ksGG6KDdF-CpPXrRE5-26" value="" style="endArrow=none;html=1;rounded=0;exitX=1;exitY=0.5;exitDx=0;exitDy=0;" edge="1" parent="1" source="h1ksGG6KDdF-CpPXrRE5-19">
          <mxGeometry width="50" height="50" relative="1" as="geometry">
            <mxPoint x="940" y="510" as="sourcePoint" />
            <mxPoint x="570" y="470" as="targetPoint" />
          </mxGeometry>
        </mxCell>
        <mxCell id="h1ksGG6KDdF-CpPXrRE5-31" value="" style="rounded=0;whiteSpace=wrap;html=1;" vertex="1" parent="1">
          <mxGeometry x="830" y="90" width="120" height="60" as="geometry" />
        </mxCell>
        <mxCell id="h1ksGG6KDdF-CpPXrRE5-32" value="" style="rounded=0;whiteSpace=wrap;html=1;" vertex="1" parent="1">
          <mxGeometry x="1010" y="90" width="120" height="60" as="geometry" />
        </mxCell>
        <mxCell id="h1ksGG6KDdF-CpPXrRE5-33" value="" style="rounded=0;whiteSpace=wrap;html=1;" vertex="1" parent="1">
          <mxGeometry x="1130" y="740" width="120" height="60" as="geometry" />
        </mxCell>
        <mxCell id="h1ksGG6KDdF-CpPXrRE5-39" value="" style="endArrow=none;html=1;rounded=0;strokeWidth=5;" edge="1" parent="1">
          <mxGeometry width="50" height="50" relative="1" as="geometry">
            <mxPoint x="855" y="260" as="sourcePoint" />
            <mxPoint x="1085" y="260" as="targetPoint" />
          </mxGeometry>
        </mxCell>
      </root>
    </mxGraphModel>
  </diagram>
</mxfile>
